<?xml version="1.0" encoding="utf-8"?>
<!-- Generator: Adobe Illustrator 24.0.0, SVG Export Plug-In . SVG Version: 6.00 Build 0)  -->
<svg version="1.1" id="Capa_1" xmlns="http://www.w3.org/2000/svg" xmlns:xlink="http://www.w3.org/1999/xlink" x="0px" y="0px"
	 viewBox="0 0 512 512" style="enable-background:new 0 0 512 512;" xml:space="preserve">
<style type="text/css">
	.st0{fill:#393939;}
</style>
<path class="st0" d="M256,512c-68.4,0-132.7-26.6-181-75C26.6,388.7,0,324.4,0,256S26.6,123.3,75,75C123.3,26.6,187.6,0,256,0
	s132.7,26.6,181,75c48.4,48.4,75,112.6,75,181c0,50.5-15,99.7-43.4,142.1c-6.1,9.2-18.6,11.6-27.7,5.5s-11.6-18.6-5.5-27.7
	C459.3,340,472,298.6,472,256c0-119.1-96.9-216-216-216S40,136.9,40,256s96.9,216,216,216c39.5,0,78.1-10.8,111.7-31.1
	c9.4-5.7,21.7-2.7,27.5,6.7c5.7,9.4,2.7,21.7-6.7,27.5C348.6,499.2,302.8,512,256,512z M190.9,349.3l79.2-79.2
	c3.8-3.8,5.9-8.8,5.9-14.1V96c0-11-9-20-20-20s-20,9-20,20v151.7l-73.3,73.3c-7.8,7.8-7.8,20.5,0,28.3c3.9,3.9,9,5.9,14.1,5.9
	S187,353.2,190.9,349.3z"/>
</svg>
