<?xml version="1.0" encoding="utf-8"?>
<!-- Generator: Adobe Illustrator 24.0.0, SVG Export Plug-In . SVG Version: 6.00 Build 0)  -->
<svg version="1.1" id="Capa_1" xmlns="http://www.w3.org/2000/svg" xmlns:xlink="http://www.w3.org/1999/xlink" x="0px" y="0px"
	 viewBox="0 0 512 512" style="enable-background:new 0 0 512 512;" xml:space="preserve">
<style type="text/css">
	.st0{fill:#c4c4c4;}
	<!-- .st0{fill:#393939;} -->
</style>
<path class="st0" d="M476.6,308.7c0.2,0.2,0.4,0.5,0.6,0.7c0,0,0,0,0,0c0,0,0,0.1,0.1,0.1c1.8,2,4,3.5,6.3,4.6
	c2.4,1.1,5,1.8,7.8,1.9c0.1,0,0.1,0,0.2,0c0,0,0,0,0,0c1.4,0,2.9-0.1,4.3-0.4l0.1,0c0.1,0,0.1,0,0.2,0c0,0,0.1,0,0.1,0
	c0.1,0,0.1,0,0.2,0c0,0,0.1,0,0.1,0c0,0,0.1,0,0.1,0c0,0,0.1,0,0.1,0c0,0,0.1,0,0.1,0c0,0,0.1,0,0.1,0c0,0,0.1,0,0.1,0
	c0,0,0.1,0,0.1,0c0,0,0.1,0,0.1,0c0,0,0.1,0,0.1,0l0.1,0c0,0,0.1,0,0.1,0c0,0,0.1,0,0.1,0c0,0,0.1,0,0.1,0c0,0,0.1,0,0.1,0
	c0,0,0.1,0,0.1,0c0,0,0.1,0,0.1,0c0,0,0.1,0,0.1,0c0,0,0.1,0,0.1,0c0,0,0,0,0.1,0c0.1,0,0.1,0,0.2-0.1c0,0,0,0,0.1,0
	c0.1,0,0.1,0,0.2-0.1c0,0,0,0,0.1,0c0.1,0,0.1,0,0.2-0.1l0,0c0.1,0,0.1-0.1,0.2-0.1c0,0,0,0,0,0c0.1,0,0.1-0.1,0.2-0.1
	c0.9-0.4,1.8-0.8,2.6-1.3c0,0,0,0,0,0c0.1,0,0.1-0.1,0.2-0.1c1.1-0.7,2.1-1.4,3-2.3c0,0,0,0,0,0c0,0,0,0,0,0c2-1.8,3.6-4,4.6-6.3
	c1.1-2.4,1.8-5,1.9-7.8c0,0,0-0.1,0-0.1c0,0,0,0,0-0.1c0-0.1,0-0.1,0-0.2c0,0,0,0,0,0c0-0.1,0-0.2,0-0.3V116c0-44.1-35.9-80-80-80
	H80C35.9,36,0,71.9,0,116v280c0,44.1,35.9,80,80,80h189.4c0,0,0.1,0,0.1,0c0.1,0,0.1,0,0.2,0H432c44.1,0,80-35.9,80-80
	c0-11-9-20-20-20s-20,9-20,20c0,22.1-17.9,40-40,40H279.3l-46-59.7l145.1-184.6L476.6,308.7z M377.7,140c-6,0.1-11.7,2.9-15.4,7.6
	l-154.1,196l-52.3-67.9c-3.8-4.9-9.6-7.8-15.8-7.8h0c-6.2,0-12.1,2.9-15.8,7.8l-44,57.2c-6.7,8.8-5.1,21.3,3.7,28
	c8.8,6.7,21.3,5.1,28-3.7l28.2-36.6L228.8,436H80c-22.1,0-40-17.9-40-40V116c0-22.1,17.9-40,40-40h352c22.1,0,40,17.9,40,40v125
	l-78.7-93.9C389.5,142.5,383.7,139.9,377.7,140z M140,108c-33.1,0-60,26.9-60,60s26.9,60,60,60s60-26.9,60-60S173.1,108,140,108z
	 M140,188c-11,0-20-9-20-20s9-20,20-20s20,9,20,20S151,188,140,188z"/>
</svg>
