<?xml version="1.0" encoding="utf-8"?>
<!-- Generator: Adobe Illustrator 24.0.0, SVG Export Plug-In . SVG Version: 6.00 Build 0)  -->
<svg version="1.1" id="Layer_1" xmlns="http://www.w3.org/2000/svg" xmlns:xlink="http://www.w3.org/1999/xlink" x="0px" y="0px"
	 viewBox="0 0 500 500" style="enable-background:new 0 0 500 500;" xml:space="preserve">
<style type="text/css">
	.st0{fill:#393939;}
</style>
<g>
</g>
<path class="st0" d="M250,55c52.1,0,101.1,20.3,137.9,57.1C424.7,148.9,445,197.9,445,250s-20.3,101.1-57.1,137.9
	C351.1,424.7,302.1,445,250,445s-101.1-20.3-137.9-57.1C75.3,351.1,55,302.1,55,250s20.3-101.1,57.1-137.9
	C148.9,75.3,197.9,55,250,55 M250,5C114.7,5,5,114.7,5,250c0,135.3,109.7,245,245,245s245-109.7,245-245C495,114.7,385.3,5,250,5
	L250,5z"/>
<circle class="st0" cx="250" cy="250" r="119.6"/>
</svg>
